<svg width="228" height="157" viewBox="0 0 228 157" fill="none" xmlns="http://www.w3.org/2000/svg">
<path d="M41.5431 137.539C41.9431 134.339 44.0431 128.539 45.0431 126.039L46.0431 125.539L60.0431 128.039L70.5431 141.039V147.039C68.3764 147.872 62.5431 149.739 56.5431 150.539C50.5431 151.339 43.3764 148.205 40.5431 146.539C40.7097 144.872 41.1431 140.739 41.5431 137.539Z" fill="#538AFF"/>
<path d="M13.0431 66.0387C8.64307 61.2387 4.54307 50.7054 3.04307 46.0387C2.54307 43.3721 3 36.3 7 35.5C12 34.5 11.5431 42.5 30.0431 41.5C48.5431 40.5 43.0431 39.5 49.5431 41C54.7431 42.2 68.3764 56.872 74.5431 62.5387C79.0431 66.2054 90.6431 69.2387 99.0431 66.0387C107.443 62.8387 111.043 67.5387 112.043 68.5387C114.043 71.2054 118.043 77.0387 118.043 79.0387C118.043 81.5387 115.543 84.0387 113.043 84.5387C111.043 84.9387 105.876 87.0387 103.543 88.0387C99.7097 89.7054 92.0861 93.0774 91.5431 95.5387C91 98 102.743 106.439 103.543 108.039L158.543 114.039C155.043 116.372 145.443 122.939 135.043 130.539C122.043 140.039 107.543 141.039 90.0431 143.039C76.0431 144.639 60.8764 137.705 55.0431 134.039C48.0431 129.205 34.0431 117.239 34.0431 108.039C34.0431 96.5387 32.5431 90.0387 32.0431 88.0387C31.5431 86.0387 18.5431 72.0387 13.0431 66.0387Z" fill="#6FCFF8"/>
<path d="M61.1546 11.1868C65.6488 10.8889 68.2267 12.1342 71.5431 13.0387C75.9431 14.2387 80.7097 16.5387 82.5431 17.5387C90.5431 16.872 106.896 15.0387 108.043 16.5387C114.543 25.0387 131.543 51.0387 131.543 63.5387C131.543 76.0387 120.043 81.0387 119.043 84.0387C118.043 87.0387 119.393 96.1107 124.543 100.539C129.249 104.584 136.543 104.039 140.043 104.039C143.543 104.039 150.043 103.039 152.043 104.039C154.043 105.039 157.243 107.239 158.043 112.039C159.043 118.039 164.043 126.539 169.543 128.039L172.043 144.539C170.876 145.039 167.843 146.239 165.043 147.039C161.543 148.039 147.543 147.039 147.043 145.039L149.043 136.539C146.043 136.539 141.043 137.039 139.043 135.539C137.043 134.039 132.376 126.539 129.543 122.539H125.043C126.043 127.705 129.043 134.539 128.043 139.039C127.043 143.539 122.043 152.039 121.043 152.539C120.043 153.039 109.043 157.539 99.5431 156.539C91.9431 155.739 88.7097 152.539 88.0431 151.039C88.0431 151.039 89.3773 146.398 90.5431 143.539C93.4896 136.313 98.4659 133.904 101.043 126.539C103.451 119.657 104.543 110.539 103.543 108.039C102.543 105.539 90.5 99 91.5431 95.5387C92.5861 92.0774 98.1431 90.5387 102.543 88.5387C108.043 86.0387 115.043 84.0387 116.043 83.0387C117.043 82.0387 118.043 81.5387 118.043 79.5387C118.043 77.5387 112.543 68.0387 111.043 68.0387C109.543 68.0387 107.043 66.5387 102.543 68.0387L102.543 68.0387C98.043 69.5387 96.543 70.0387 91.5431 70.0387C86.5431 70.0387 77.0431 65.0387 72.5431 61.0387C68.0431 57.0387 55.543 45.0387 48.043 43.5387C40.543 42.0387 27.8825 47.3237 16.543 42.5387C12.5934 40.8721 8.04305 37.0387 7.04305 37.0387C6.04305 37.0387 3.54305 38.5387 3.04305 40.5387C2.64305 42.1387 2.87639 45.2054 3.04305 46.5387C1.87639 44.5387 -0.335628 39.8836 0.0430553 38.0387C0.421739 36.1938 3.04305 31.5387 7.54305 28.0387C11.1431 25.2387 17.043 20.872 19.543 19.0387C28.7097 13.0387 47.643 1.23871 50.043 2.03871C52.4431 2.83871 59.043 8.37203 62.043 11.0387L61.1546 11.1868Z" fill="#538AFF"/>
<path d="M110.543 56.5387C108.543 58.5387 101.143 60.1387 89.5431 58.5387C79.9975 57.2221 71.603 50.9622 68.9291 46C66.9527 47 61.8 47.2 61 42C60.2 36.8 67.151 36.6667 70.2265 37C72.734 33.0158 77.1387 28.6525 82.0431 25.0387C89.6431 19.4387 99.5431 19.5387 102.043 21.5387C104.543 23.5387 108.243 28.3387 111.043 35.5387C113.843 42.7387 112.543 54.5387 110.543 56.5387Z" fill="#355498"/>
<path d="M46.0431 8.5387C49.5431 11.0774 51 19.5 42.5431 27.5387C42.1728 27.8906 41.8338 28.2128 41.5239 28.5071C41.8401 30.2598 41.9516 33.7194 40 34.5C38 35.3 34.8333 33.8424 33.5 33.0136C28.4926 35.1164 22.2929 36.2767 16.5431 33.5387C15.2097 33.0387 13.5 29.2 15.5 22L38 7.5C38 7.5 42.5431 6 46.0431 8.5387Z" fill="#355498"/>
<path d="M48.0431 143.539C46.4431 143.139 44.0431 146.039 43.0431 147.539C48.0431 150.039 54.5431 150.539 56.0431 150.539C57.2431 150.539 66.2097 148.205 70.5431 147.039C69.7097 145.705 67.6431 143.139 66.0431 143.539C64.4431 143.939 62.7097 145.372 62.0431 146.039C61.0431 145.539 57.5431 143.539 56.0431 143.539C54.8431 143.539 52.8764 145.539 52.0431 146.539C51.3764 145.705 49.6431 143.939 48.0431 143.539Z" fill="#AAC5FF"/>
<path d="M93.0431 146.539C91.8431 146.539 89.5431 148.205 88.5431 149.039L88.0431 151.039C91.5431 155.539 95.0431 155.539 100.543 156.539C104.943 157.339 114.043 154.872 118.043 153.539C116.876 152.039 114.143 149.039 112.543 149.039C110.943 149.039 108.543 150.372 107.543 151.039C105.043 148.539 102.043 147.039 100.543 147.039C99.3431 147.039 97.7097 149.039 97.0431 150.039C96.2097 148.872 94.2431 146.539 93.0431 146.539Z" fill="#AAC5FF"/>
<path d="M150.543 141.539C149.743 141.139 148.543 141.372 148.043 141.539L147.043 145.039C147.543 146.539 152.043 147.039 157.543 147.539C161.943 147.939 167.043 146.705 169.043 146.039C168.876 145.372 168.443 143.839 168.043 143.039C167.543 142.039 166.043 141.539 165.543 141.539C165.143 141.539 163.043 142.872 162.043 143.539C161.043 142.539 158.643 140.539 157.043 140.539C155.443 140.539 153.376 142.539 152.543 143.539C152.21 143.039 151.343 141.939 150.543 141.539Z" fill="#AAC5FF"/>
<path d="M100.5 23.0001C89.3617 16.6215 73 35.5001 73 41.0001C73 46.5 99.5 57 106.5 49.5001C113.5 42.0001 109.708 28.2732 100.5 23.0001Z" fill="white"/>
<path d="M102 51.5C81.2634 48 84.6399 30.2218 89.5 26C94.3601 21.7782 97.0967 22.944 101.183 24.373C105.78 25.9806 111.909 34.8522 110.887 41.5208C110.07 46.8557 107 51 102 51.5Z" fill="#00477E"/>
<path d="M94.5678 39.3636C90.9513 33.8297 91.9308 28.9875 92.8726 27.2582C95.6979 26.1053 100.784 28.9875 103.609 32.4462C106.434 35.9049 104.174 43.9752 103.609 44.5517C103.044 45.1281 99.0884 46.281 94.5678 39.3636Z" fill="#6FCFF8"/>
<path d="M38.5 25C44.1 20.2 46.5 13.5 44 10.5C41.5 7.5 31.5 6.49999 25.5 10.5C18 15.5 17.5 27 19.5 28.5C21.5 30 31.5 31 38.5 25Z" fill="white"/>
<path d="M26.5 29.5C39.3 25.9 43 10.5 39.5 8.99997C36 7.49994 32.5 7.19997 26.5 9.99997C19 13.5 17.7 23.5 18.5 27.5C18.9 29.5 24.1667 29.6666 26.5 29.5Z" fill="#00477E"/>
<path d="M23.3424 22.3881C25.435 22.8993 40.1693 13.2575 34.3841 11.2265C31.4363 10.1916 29.0071 10.5363 26.4634 12.3502C23.1211 14.7337 20.7268 21.7492 23.3424 22.3881Z" fill="#6FCFF8"/>
<path d="M170.5 89C170.1 91.4 157.333 100.667 151 105L157.5 121C161.833 118 170.9 111.2 172.5 108C174.1 104.8 178.5 96.6667 180.5 93C182.167 95.3333 188.4 100.8 200 104C211.6 107.2 222.833 102.667 227 100C220.167 94.1667 205 78 199 60C193 42 199.5 12.5 203.5 0C163.5 16.5 171 86 170.5 89Z" fill="#538AFF"/>
<path d="M201.5 67C191.98 46.9578 198.333 15.8333 203.5 0.5C189 9.5 178.5 58.5 191.5 75.5C201.9 89.1 219.833 97.8333 227.5 100.5C224.667 97.8333 211 87 201.5 67Z" fill="#355498"/>
</svg>
