<svg width="258" height="78" viewBox="0 0 258 78" fill="none" xmlns="http://www.w3.org/2000/svg">
<rect y="8" width="258" height="70" rx="10" fill="#020100"/>
<rect width="258" height="70" rx="10" fill="#260F00"/>
<rect y="8" width="258" height="26" rx="10" fill="#E60000"/>
<rect width="258" height="28" rx="10" fill="#FF0000"/>
<path d="M23.5151 39.7468C22.0097 37.3482 22.9592 34.2965 23.6221 33.0704L19.8111 30.0413L19.7278 35.234C19.6922 37.4595 17.0841 39.6437 17.0484 41.8691C17.0199 43.6495 19.0694 45.2276 20.8594 44.8983C22.8607 44.5301 25.0204 42.1454 23.5151 39.7468Z" fill="#E60000" stroke="#E60000" stroke-width="0.5"/>
<path d="M235.685 37.7468C237.19 35.3482 236.241 32.2965 235.578 31.0704L239.389 28.0413L239.472 33.234C239.508 35.4595 242.116 37.6437 242.152 39.8691C242.18 41.6495 240.131 43.2276 238.341 42.8983C236.339 42.5301 234.18 40.1454 235.685 37.7468Z" fill="#E60000" stroke="#E60000" stroke-width="0.5"/>
</svg>
