<svg width="260" height="155" viewBox="0 0 260 155" fill="none" xmlns="http://www.w3.org/2000/svg">
<path d="M41.5431 135.539C41.9431 132.339 44.0431 126.539 45.0431 124.039L46.0431 123.539L60.0431 126.039L70.5431 139.039V145.039C68.3764 145.872 62.5431 147.739 56.5431 148.539C50.5431 149.339 43.3764 146.205 40.5431 144.539C40.7098 142.872 41.1431 138.739 41.5431 135.539Z" fill="#E60707"/>
<path d="M13.043 64.0387C8.643 59.2387 4.54301 48.7054 3.04301 44.0387C2.54301 41.3721 0.999939 35.3 4.99994 34.5C9.99994 33.5 11.4999 41.5 29.9999 40.5C48.4999 39.5 43.9999 39 50.4999 40.5C55.6999 41.7 71.8333 52.8334 77.9999 58.5C82.4999 62.1667 89.5999 68.7 97.9999 65.5C106.4 62.3 111.043 65.5387 112.043 66.5387C114.043 69.2054 120 75.5 120 77.5C120 80 115.543 82.0387 113.043 82.5387C111.043 82.9387 105.876 85.0387 103.543 86.0387C99.7097 87.7054 91.943 91.5387 91.543 93.5387C95.2097 97.0387 102.743 104.439 103.543 106.039L158.543 112.039C155.043 114.372 145.443 120.939 135.043 128.539C122.043 138.039 107.543 139.039 90.043 141.039C76.043 142.639 60.8763 135.705 55.043 132.039C48.043 127.205 34.043 115.239 34.043 106.039C34.043 94.5387 32.543 88.0387 32.043 86.0387C31.543 84.0387 18.543 70.0387 13.043 64.0387Z" fill="#FF7411"/>
<path d="M61.1546 9.18677C65.6488 8.8889 68.2267 10.1342 71.5431 11.0387C75.9431 12.2387 80.7097 14.5387 82.5431 15.5387C90.5431 14.872 106.896 13.0387 108.043 14.5387C114.543 23.0387 131.543 49.0387 131.543 61.5387C131.543 74.0387 120.043 79.0387 119.043 82.0387C118.043 85.0387 119.393 94.1107 124.543 98.5387C129.249 102.584 136.543 102.039 140.043 102.039C143.543 102.039 150.043 101.039 152.043 102.039C154.043 103.039 157.243 105.239 158.043 110.039C159.043 116.039 164.043 124.539 169.543 126.039L172.043 142.539C170.876 143.039 167.843 144.239 165.043 145.039C161.543 146.039 147.543 145.039 147.043 143.039L149.043 134.539C146.043 134.539 141.043 135.039 139.043 133.539C137.043 132.039 132.376 124.539 129.543 120.539H125.043C126.043 125.705 129.043 132.539 128.043 137.039C127.043 141.539 122.043 150.039 121.043 150.539C120.043 151.039 109.043 155.539 99.5431 154.539C91.9431 153.739 88.7097 150.539 88.0431 149.039C88.0431 149.039 89.3773 144.398 90.5431 141.539C93.4896 134.313 98.4659 131.904 101.043 124.539C103.451 117.657 104.543 108.539 103.543 106.039C102.543 103.539 92.0431 94.5387 91.5431 93.5387C91.0431 92.5387 98.1431 88.5387 102.543 86.5387C108.043 84.0387 115.043 82.0387 116.043 81.0387C117.043 80.0387 118.043 79.5387 118.043 77.5387C118.043 75.5387 112.543 66.0387 111.043 66.0387C109.543 66.0387 107.043 64.5387 102.543 66.0387C98.0431 67.5387 98.0431 68.5387 93.0431 68.5387C88.0431 68.5387 77.0431 63.0387 72.5431 59.0387C68.0431 55.0387 55.543 43.0387 48.043 41.5387C40.543 40.0387 27.8825 45.3237 16.543 40.5387C12.5934 38.8721 8.04305 35.0387 7.04305 35.0387C6.04305 35.0387 3.54305 36.5387 3.04305 38.5387C2.64305 40.1387 2.87639 43.2054 3.04305 44.5387C1.87639 42.5387 -0.335628 37.8836 0.0430553 36.0387C0.421739 34.1938 3.04305 29.5387 7.54305 26.0387C11.1431 23.2387 17.043 18.872 19.543 17.0387C28.7097 11.0387 47.643 -0.761295 50.043 0.0387054C52.4431 0.838705 59.043 6.37203 62.043 9.0387L61.1546 9.18677Z" fill="#E60707"/>
<path d="M58.0431 36.0387C54.4431 35.6387 52.8764 38.2054 52.5431 39.5387C53.3764 39.7054 55.3431 39.8387 56.5431 39.0387C57.7431 38.2387 58.0431 36.7054 58.0431 36.0387Z" fill="#7D0000"/>
<path d="M44.059 31.0725C46.9265 33.2855 46.2705 36.2201 45.5841 37.4108C44.8688 36.9518 43.3615 35.6816 43.0541 34.2725C42.7466 32.8634 43.5959 31.5521 44.059 31.0725Z" fill="#7D0000"/>
<path d="M89.5431 56.5387C77.9431 54.9387 68.0431 46.0387 68.0431 41.0387C68.0431 36.0387 74.4431 28.6387 82.0431 23.0387C89.6431 17.4387 99.5431 17.5387 102.043 19.5387C104.543 21.5387 108.243 26.3387 111.043 33.5387C113.843 40.7387 112.543 52.5387 110.543 54.5387C108.543 56.5387 101.143 58.1387 89.5431 56.5387Z" fill="#7D0000"/>
<path d="M75.0431 45.5387C73.8431 43.9387 74.5431 40.2054 75.0431 38.5387L107.543 33.0387C108.21 35.372 109.343 41.1387 108.543 45.5387C107.743 49.9387 105.543 51.372 104.543 51.5387C89.5431 56.5387 76.5431 47.5387 75.0431 45.5387Z" fill="white"/>
<path d="M91.5431 48.5387C89.1431 48.9387 88.8764 44.372 89.0431 42.0387L94.5431 41.5387C94.5431 43.7054 93.9431 48.1387 91.5431 48.5387Z" fill="#FFB300"/>
<path d="M42.543 25.5387C45.343 23.1387 51.5 10 46.043 6.53869C40.5861 3.07738 37.9999 5.5 37.9999 5.5C37.9999 5.5 16.5555 18.5 15 20.5C13.4445 22.5 15.2097 31.0387 16.543 31.5387C27.043 36.5387 39.043 28.5387 42.543 25.5387Z" fill="#7D0000"/>
<path d="M19.043 22.0387C19.443 14.4387 22.8764 11.5387 24.543 11.0387L34.043 26.0387C27.543 33.0387 18.543 31.5387 19.043 22.0387Z" fill="white"/>
<path d="M22.5431 24.0387C22.5431 22.0387 23.8764 18.872 24.5431 17.5387L28.0431 22.0387C27.5431 23.2054 26.3431 25.6387 25.5431 26.0387C24.5431 26.5387 22.5431 26.5387 22.5431 24.0387Z" fill="#FFB200"/>
<path d="M48.0431 141.539C46.4431 141.139 44.0431 144.039 43.0431 145.539C48.0431 148.039 54.5431 148.539 56.0431 148.539C57.2431 148.539 66.2098 146.205 70.5431 145.039C69.7098 143.705 67.6431 141.139 66.0431 141.539C64.4431 141.939 62.7098 143.372 62.0431 144.039C61.0431 143.539 57.5431 141.539 56.0431 141.539C54.8431 141.539 52.8764 143.539 52.0431 144.539C51.3764 143.705 49.6431 141.939 48.0431 141.539Z" fill="#B00000"/>
<path d="M93.0431 144.539C91.8431 144.539 89.5431 146.205 88.5431 147.039L88.0431 149.039C91.5431 153.539 95.0431 153.539 100.543 154.539C104.943 155.339 114.043 152.872 118.043 151.539C116.876 150.039 114.143 147.039 112.543 147.039C110.943 147.039 108.543 148.372 107.543 149.039C105.043 146.539 102.043 145.039 100.543 145.039C99.3431 145.039 97.7098 147.039 97.0431 148.039C96.2098 146.872 94.2431 144.539 93.0431 144.539Z" fill="#B00000"/>
<path d="M150.543 139.539C149.743 139.139 148.543 139.372 148.043 139.539L147.043 143.039C147.543 144.539 152.043 145.039 157.543 145.539C161.943 145.939 167.043 144.705 169.043 144.039C168.876 143.372 168.443 141.839 168.043 141.039C167.543 140.039 166.043 139.539 165.543 139.539C165.143 139.539 163.043 140.872 162.043 141.539C161.043 140.539 158.643 138.539 157.043 138.539C155.443 138.539 153.376 140.539 152.543 141.539C152.21 141.039 151.343 139.939 150.543 139.539Z" fill="#B00000"/>
<path d="M90.043 23.0386C75.243 27.0386 70.043 40.5386 72.543 42.0386C75.043 43.5386 85.2267 44.8135 93.043 43.0386C99.6006 41.5496 108.043 37.0387 108.543 35.5386C109.043 34.0386 104.843 19.0386 90.043 23.0386Z" fill="#D50606"/>
<path d="M28.0431 6.5387C30.0431 6.1387 37.6769 4.40682 41.5431 8.0387C47.3937 13.5347 37.5431 27.0387 35.0431 27.5387C32.5431 28.0387 30.0431 27.0387 26.0431 22.0387C22.8431 18.0387 20.7098 13.372 20.0431 11.5387C20.5431 7.53871 25.5431 7.0387 28.0431 6.5387Z" fill="#D50606"/>
<path d="M164.043 82.0387L151.043 102.039L158.543 115.039C163.876 112.872 176.243 108.739 183.043 109.539C191.543 110.539 194.543 118.539 211.043 119.539C227.543 120.539 257.043 85.5387 258.543 82.0387C260.043 78.5387 258.543 68.5387 251.543 50.5387C244.543 32.5387 213.043 18.0387 200.043 16.0387C189.643 14.4387 171.71 26.0387 164.043 32.0387C148.043 29.6387 148.376 17.7054 150.543 12.0387C126.943 20.0387 133.043 39.0387 139.043 47.5387C143.876 51.7054 155.343 60.2387 162.543 61.0387C171.543 62.0387 171.043 56.0387 176.543 53.0387C182.043 50.0387 189.543 59.0387 190.543 60.0387C191.543 61.0387 194.543 74.0387 189.543 76.5387C184.543 79.0387 179.543 73.5387 174.543 74.0387C170.543 74.4387 165.876 79.5387 164.043 82.0387Z" fill="#E60707"/>
<path d="M171.043 85.5387C165.443 87.5387 158.376 98.372 155.543 103.539L160.043 109.039C167.543 101.039 215.543 103.539 224.543 103.539C233.543 103.539 243.543 88.0387 243.543 66.0387C243.543 44.0387 211.543 29.5387 199.043 24.5387C186.543 19.5387 169.043 32.5387 163.043 38.0387C158.243 42.4387 150.71 39.872 147.543 38.0387C148.71 40.372 151.943 46.1387 155.543 50.5387C160.043 56.0387 166.543 49.5387 179.543 45.0387C192.543 40.5387 203.543 72.5387 199.043 78.0387C194.543 83.5387 178.043 83.0387 171.043 85.5387Z" fill="#FF7411"/>
<path d="M171.543 91.5387C166.343 92.3387 161.376 100.539 159.543 104.539V106.039C162.876 104.372 171.143 100.339 177.543 97.5387C185.543 94.0387 202.043 97.5387 211.543 97.5387C221.043 97.5387 235.043 88.0387 236.543 74.0387C238.043 60.0387 226.043 36.0387 207.543 31.5387C192.743 27.9387 176.043 37.3721 169.543 42.5387C188.043 35.5387 198.543 53.5387 202.043 57.5387C205.543 61.5387 206.043 81.0387 202.043 83.5387C198.043 86.0387 178.043 90.5387 171.543 91.5387Z" fill="#FFB200"/>
</svg>
