<svg width="144" height="136" viewBox="0 0 144 136" fill="none" xmlns="http://www.w3.org/2000/svg">
<path d="M4.81828 113.29C8.5634 118.907 13.2448 126.398 20.735 130.143C28.2253 133.888 38.9925 137.633 50.6959 132.952C60.245 129.132 62.8676 121.716 72.2303 121.716C81.5931 121.716 96.5736 132.015 103.128 132.952C109.681 133.888 127.471 135.76 138.706 110.481C149.941 85.2014 138.706 65.5395 138.706 66.4758C138.706 67.4121 134.025 73.0297 130.28 73.966C127.284 74.715 127.783 72.4055 128.407 71.1572C129.655 69.5967 132.152 63.8542 132.152 53.3679C132.152 42.8816 122.789 35.2665 118.108 32.7698C118.108 36.5149 118.108 40.26 114.363 44.9414C111.367 48.6865 105 47.4381 103.128 46.8139C105.936 42.1325 106.873 38.3874 105.936 31.8335C105.187 26.5903 98.4462 18.7256 92.8285 14.9805C93.1406 17.7893 93.0157 25.0923 90.0196 31.8335C86.2745 40.26 75.9755 40.26 75.9755 39.3237C75.9755 38.5747 77.5359 33.3939 77.848 30.8972C78.7843 21.5344 73.1666 14.0442 69.4215 10.2991C65.6764 6.55395 56.9378 1.87256 52.5685 0C53.5048 1.87256 55.0462 10.2728 54.4411 15.9167C53.7056 22.7763 47.575 26.2158 43.2057 31.8335C41.3331 34.241 38.5243 38.3874 38.5243 44.9414C38.5243 50.1845 42.5815 55.2404 44.142 56.1767C41.3331 57.113 31.7812 54.424 28.2252 44.9414C25.4164 37.4511 28.2252 28.4005 30.0978 23.407C15.1173 29.9609 12.3085 42.1325 12.3085 49.6228C12.3085 57.113 16.9899 66.4758 16.9899 67.4121C16.9899 68.3483 17.9262 73.0297 14.1811 73.0297C11.185 73.0297 10.4359 64.2911 10.4359 59.9218C0.136881 74.9023 -4.01074 100.046 4.81828 113.29Z" fill="#FF1212"/>
<path d="M45.0782 16.853C45.0782 13.8569 41.3331 9.36276 38.5243 6.55392C39.1485 9.05067 40.3968 13.1079 40.3968 16.853C40.3968 21.5344 38.2122 24.9674 37.588 27.1521C41.3331 24.3432 45.0782 20.5981 45.0782 16.853Z" fill="#FF1212"/>
<path d="M8.56338 98.3093C5.56728 111.792 8.56338 118.907 10.4359 120.78C14.1354 127.022 26.7776 138.382 47.7502 133.888C50.247 133.264 55.9895 131.266 58.9856 128.27C62.7307 124.525 66.4758 121.716 70.2209 121.716C73.966 121.716 82.3925 122.653 92.6916 129.206C102.991 135.76 117.971 132.015 119.844 131.079C121.716 130.143 131.353 125.461 134.961 117.035C135.273 115.162 135.71 109.17 134.961 100.182C134.025 88.9465 119.044 77.7111 114.363 74.9023C109.681 72.0935 108.745 63.667 109.681 60.8581C110.43 58.611 113.114 55.5525 114.363 54.3042C111.866 53.3679 104.064 52.6189 92.8285 57.113C78.7843 62.7307 76.9117 75.8386 76.9117 73.0297C76.9117 70.2209 73.1666 58.9856 67.5489 53.3679C63.0548 48.8737 55.0652 45.8777 51.6322 44.9414C53.8168 52.1195 55.3773 68.5356 44.142 76.7749C32.9066 85.0141 26.3527 77.0869 24.4801 72.0935C20.4229 75.2144 11.5595 84.8268 8.56338 98.3093Z" fill="#FF6D12"/>
<path d="M86.2745 24.3432C86.2745 22.0962 84.4019 20.5981 81.5931 18.7256C81.5931 18.7256 83.105 22.059 83.4657 24.3432C83.8078 26.5102 83.4657 29.9609 83.4657 29.9609C85.3382 28.0883 86.2745 26.5903 86.2745 24.3432Z" fill="#FF6D12"/>
<path d="M86.5781 95.4949C79.1211 98.2204 79.2099 106.24 80.1864 109.909C91.6382 108.336 91.5317 110.852 99.6278 110.433C107.724 110.014 115.43 103.969 118.27 100.998C116.228 101.086 112.464 100.998 113.743 99.9501C115.341 98.6397 117.471 98.9018 120.135 98.3777C122.265 97.9584 124.041 95.5822 124.662 94.4466C124.484 94.6213 123.49 95.0756 120.933 95.4949C117.738 96.019 114.542 94.1845 110.813 94.1845C107.085 94.1845 99.0952 96.5432 99.0952 95.757C99.0952 95.128 102.291 94.0972 103.889 93.6604C95.5798 93.2411 87.4659 96.98 84.4476 98.9018C84.2345 97.2246 85.7792 95.9317 86.5781 95.4949Z" fill="#FFBC12"/>
<path d="M57.8826 95.4949C65.3396 98.2204 65.2508 106.24 64.2743 109.909C52.8225 108.336 52.9291 110.852 44.8329 110.433C36.7368 110.014 29.0312 103.969 26.1905 100.998C28.2323 101.086 31.9963 100.998 30.7179 99.9501C29.12 98.6397 26.9894 98.9018 24.3262 98.3777C22.1957 97.9584 20.4202 95.5822 19.7988 94.4466C19.9763 94.6213 20.9706 95.0756 23.5273 95.4949C26.7231 96.019 29.919 94.1845 33.6475 94.1845C37.3759 94.1845 45.3656 96.5432 45.3656 95.757C45.3656 95.128 42.1697 94.0972 40.5718 93.6604C48.881 93.2411 56.9949 96.98 60.0132 98.9018C60.2263 97.2246 58.6816 95.9317 57.8826 95.4949Z" fill="#FFBC12"/>
</svg>
