<svg width="220" height="163" viewBox="0 0 220 163" fill="none" xmlns="http://www.w3.org/2000/svg">
<path d="M41.5431 143.539C41.9431 140.339 44.0431 134.539 45.0431 132.039L46.0431 131.539L60.0431 134.039L70.5431 147.039V153.039C68.3764 153.872 62.5431 155.739 56.5431 156.539C50.5431 157.339 43.3764 154.205 40.5431 152.539C40.7097 150.872 41.1431 146.739 41.5431 143.539Z" fill="#00D824"/>
<path d="M13.0431 72.0387C8.64307 67.2387 4.54307 56.7054 3.04307 52.0387C2.54307 49.372 2.54307 43.8387 6.54307 43.0387C11.5431 42.0387 12.5 50 31 49C49.5 48 43.0431 48.5387 49.5431 50.0387C54.7431 51.2387 68.3764 62.872 74.5431 68.5387C79.0431 72.2053 90.1 75.7 98.5 72.5C106.834 69.3253 110.977 73.4721 112.019 74.5143L112.043 74.5387C114.043 77.2053 119.5 83 119.5 85C119.5 87.5 115.543 90.0387 113.043 90.5387C111.043 90.9387 105.876 93.0387 103.543 94.0387C99.7097 95.7053 91.9431 99.5387 91.5431 101.539C95.2097 105.039 104.7 112.439 105.5 114.039L158.543 120.039C155.043 122.372 145.443 128.939 135.043 136.539C122.043 146.039 107.543 147.039 90.0431 149.039C76.0431 150.639 60.8764 143.705 55.0431 140.039C48.0431 135.205 34.0431 123.239 34.0431 114.039C34.0431 102.539 32.5431 96.0387 32.0431 94.0387C31.5431 92.0387 18.5431 78.0387 13.0431 72.0387Z" fill="#6CFF53"/>
<path d="M61.1546 17.1868C65.6488 16.8889 68.2267 18.1342 71.5431 19.0387C75.9431 20.2387 80.7097 22.5387 82.5431 23.5387C90.5431 22.872 106.896 21.0387 108.043 22.5387C114.543 31.0387 131.543 57.0387 131.543 69.5387C131.543 82.0387 120.043 87.0387 119.043 90.0387C118.043 93.0387 119.393 102.111 124.543 106.539C129.249 110.584 136.543 110.039 140.043 110.039C143.543 110.039 150.043 109.039 152.043 110.039C154.043 111.039 157.243 113.239 158.043 118.039C159.043 124.039 164.043 132.539 169.543 134.039L172.043 150.539C170.876 151.039 167.843 152.239 165.043 153.039C161.543 154.039 147.543 153.039 147.043 151.039L149.043 142.539C146.043 142.539 141.043 143.039 139.043 141.539C137.043 140.039 132.376 132.539 129.543 128.539H125.043C126.043 133.705 129.043 140.539 128.043 145.039C127.043 149.539 122.043 158.039 121.043 158.539C120.043 159.039 109.043 163.539 99.5431 162.539C91.9431 161.739 88.7097 158.539 88.0431 157.039C88.0431 157.039 89.3773 152.398 90.5431 149.539C93.4896 142.313 98.4659 139.904 101.043 132.539C103.451 125.657 104.543 116.539 103.543 114.039C102.543 111.539 92.0431 102.539 91.5431 101.539C91.0431 100.539 98.1431 96.5387 102.543 94.5387C108.043 92.0387 115.043 90.0387 116.043 89.0387C117.043 88.0387 118.043 87.5387 118.043 85.5387C118.043 83.5387 112.543 74.0387 111.043 74.0387C109.543 74.0387 107.043 72.5387 102.543 74.0387L102.543 74.0387C98.043 75.5387 96.543 76.0387 91.5431 76.0387C86.5431 76.0387 77.0431 71.0387 72.5431 67.0387C68.0431 63.0387 55.543 51.0387 48.043 49.5387C40.543 48.0387 27.8825 53.3237 16.543 48.5387C12.5934 46.8721 8.04305 43.0387 7.04305 43.0387C6.04305 43.0387 3.54305 44.5387 3.04305 46.5387C2.64305 48.1387 2.87639 51.2054 3.04305 52.5387C1.87639 50.5387 -0.335628 45.8836 0.0430553 44.0387C0.421739 42.1938 3.04305 37.5387 7.54305 34.0387C11.1431 31.2387 17.043 26.872 19.543 25.0387C28.7097 19.0387 47.643 7.23871 50.043 8.03871C52.4431 8.83871 59.043 14.372 62.043 17.0387L61.1546 17.1868Z" fill="#00D824"/>
<path d="M58.0431 44.0387C54.4431 43.6387 52.8764 46.2054 52.5431 47.5387C53.3764 47.7054 55.3431 47.8387 56.5431 47.0387C57.7431 46.2387 58.0431 44.7054 58.0431 44.0387Z" fill="#00A01B"/>
<path d="M44.0762 39.0686C46.9317 41.297 46.26 44.2281 45.5671 45.415C44.8544 44.9522 43.3539 43.6738 43.054 42.2632C42.7541 40.8525 43.6105 39.5457 44.0762 39.0686Z" fill="#00A01B"/>
<path d="M89.5431 64.5387C77.9431 62.9387 68.0431 54.0387 68.0431 49.0387C68.0431 44.0387 74.4431 36.6387 82.0431 31.0387C89.6431 25.4387 99.5431 25.5387 102.043 27.5387C104.543 29.5387 108.243 34.3387 111.043 41.5387C113.843 48.7387 112.543 60.5387 110.543 62.5387C108.543 64.5387 101.143 66.1387 89.5431 64.5387Z" fill="#00A01B"/>
<path d="M48.0431 149.539C46.4431 149.139 44.0431 152.039 43.0431 153.539C48.0431 156.039 54.5431 156.539 56.0431 156.539C57.2431 156.539 66.2097 154.205 70.5431 153.039C69.7097 151.705 67.6431 149.139 66.0431 149.539C64.4431 149.939 62.7097 151.372 62.0431 152.039C61.0431 151.539 57.5431 149.539 56.0431 149.539C54.8431 149.539 52.8764 151.539 52.0431 152.539C51.3764 151.705 49.6431 149.939 48.0431 149.539Z" fill="#00A01B"/>
<path d="M93.0431 152.539C91.8431 152.539 89.5431 154.205 88.5431 155.039L88.0431 157.039C91.5431 161.539 95.0431 161.539 100.543 162.539C104.943 163.339 114.043 160.872 118.043 159.539C116.876 158.039 114.143 155.039 112.543 155.039C110.943 155.039 108.543 156.372 107.543 157.039C105.043 154.539 102.043 153.039 100.543 153.039C99.3431 153.039 97.7097 155.039 97.0431 156.039C96.2097 154.872 94.2431 152.539 93.0431 152.539Z" fill="#00A01B"/>
<path d="M150.543 147.539C149.743 147.139 148.543 147.372 148.043 147.539L147.043 151.039C147.543 152.539 152.043 153.039 157.543 153.539C161.943 153.939 167.043 152.705 169.043 152.039C168.876 151.372 168.443 149.839 168.043 149.039C167.543 148.039 166.043 147.539 165.543 147.539C165.143 147.539 163.043 148.872 162.043 149.539C161.043 148.539 158.643 146.539 157.043 146.539C155.443 146.539 153.376 148.539 152.543 149.539C152.21 149.039 151.343 147.939 150.543 147.539Z" fill="#00A01B"/>
<path d="M100.5 30C89.2776 23.8819 73 40.5 73.5 48.5C74 56.5 99 61 107.5 55.5C114.3 51.1 109.567 34.943 100.5 30Z" fill="white"/>
<path d="M35.5 40C15.9 46 13 34.8333 14 29C20.8333 24.3333 24 21.5 36.5 14C38.4403 12.8358 40.5 10.5 47.5 16C54.5 21.5 40.3333 37.3334 35.5 40Z" fill="#00A01B"/>
<path d="M27.1032 15.9725C33.084 14.3774 40.3654 12.4354 44 18C47.9262 24.011 40.1667 32.1667 37 35C25.4 42.2 20.1667 36.3333 19 32.5C19.1667 27.6667 21 17.6 27 16L27.1032 15.9725Z" fill="white"/>
<path d="M167.5 93.5C163.1 99.9 148.667 108.833 142 112.5L157 126L176.5 101C193.7 116.2 212 115 219 112.5C221.4 93.7 197.333 84.3333 185 82C184.333 85.8333 184.2 86 189 56C193.8 26 180 6.16667 172.5 0C137.3 32.8 154.5 76 167.5 93.5Z" fill="#00D824"/>
<path d="M173 0.5C172.642 2.70248 172.327 4.91548 172.041 7.15942C169.633 27.2142 168.849 47.6463 172.15 67.7673C173.411 74.8591 175.221 81.9811 178.709 88.425L178.929 88.6934C189.201 96.7661 199.978 104.424 212.047 109.584C214.133 110.417 216.296 111.151 218.5 111.5C216.322 111.02 214.222 110.172 212.198 109.235C200.521 103.489 190.091 95.4926 180.071 87.3066L180.291 87.575C177.078 81.3656 175.357 74.3958 174.121 67.4242C170.869 47.6286 171.086 27.3181 172.419 7.19742C172.585 4.9448 172.774 2.71988 173 0.5Z" fill="#00A01B"/>
<path d="M102.483 47.4248C103.071 45.8816 103.267 43.9955 102.483 43.824C102.483 43.824 98.2113 41.6748 93.672 40.7376C88.8395 39.7399 83.7042 39.9579 83.0983 40.2232C81.9235 40.7377 81.806 41.1491 81.3361 42.7951L81.336 42.7952C80.8661 44.4413 80.7486 45.8817 81.9235 46.3961C82.5013 46.6491 87.5027 46.579 91.9097 47.4248C96.4636 48.2989 100.423 50.0841 100.721 49.9969C101.309 49.8255 101.896 48.9681 102.483 47.4248Z" fill="#007113"/>
<path d="M37.2752 25.9433C37.5928 24.6072 37.5432 23.0344 36.8672 22.984C36.8672 22.984 33.0423 21.7115 29.1308 21.4659C24.9665 21.2044 20.6862 21.9771 20.2084 22.2652C19.2817 22.8237 19.2299 23.1755 19.0224 24.5825L19.0224 24.5826C18.815 25.9898 18.8796 27.1871 19.9229 27.474C20.4359 27.6152 24.6208 26.9795 28.4111 27.1654C32.3277 27.3574 35.8488 28.367 36.0892 28.2609C36.5622 28.052 36.9576 27.2795 37.2752 25.9433Z" fill="#007113"/>
</svg>
