<svg width="95" height="78" viewBox="0 0 95 78" fill="none" xmlns="http://www.w3.org/2000/svg">
<rect y="8" width="95" height="70" rx="10" fill="#4A1E00"/>
<rect width="95" height="70" rx="10" fill="#6C320B"/>
<rect y="8" width="95" height="26" rx="10" fill="#00A413"/>
<rect width="95" height="28" rx="10" fill="#00FF1E"/>
<path d="M78 22.5C78.2636 24.4595 76.7273 27.4783 76 28C78.9899 27.913 84 28 84 28C84 28 83.2727 24.3478 82.7879 23.5652C82.7879 25.3913 81.9798 26.1739 81.5758 26.4348C81.5758 23.3043 80.6061 22.2609 80.3636 22C80.8485 24.6087 80.1212 26.4348 79.1515 27.2174C79.1515 24 78.3182 22.7609 78 22.5Z" fill="#00A413" stroke="#00A413"/>
</svg>
