<svg width="258" height="78" viewBox="0 0 258 78" fill="none" xmlns="http://www.w3.org/2000/svg">
<rect y="8" width="258" height="70" rx="10" fill="#4A1E00"/>
<rect width="258" height="70" rx="10" fill="#6C320B"/>
<rect y="8" width="258" height="26" rx="10" fill="#00A413"/>
<rect width="258" height="28" rx="10" fill="#00FF1E"/>
<path d="M42.25 21.75C41.6239 24.6892 45.2727 29.2174 47 30C39.899 29.8696 28 30 28 30C28 30 29.7273 24.5217 30.8788 23.3478C30.8788 26.087 32.798 27.2609 33.7576 27.6522C33.7576 22.9565 36.0606 21.3913 36.6364 21C35.4848 24.913 37.2121 27.6522 39.5152 28.8261C39.5152 24 41.4943 22.1413 42.25 21.75Z" fill="#00A413" stroke="#00A413"/>
<path d="M217.75 24.4167C218.112 26.0495 216 28.5652 215 29C219.111 28.9275 226 29 226 29C226 29 225 25.9565 224.333 25.3043C224.333 26.8261 223.222 27.4783 222.667 27.6957C222.667 25.087 221.333 24.2174 221 24C221.667 26.1739 220.667 27.6957 219.333 28.3478C219.333 25.6667 218.188 24.6341 217.75 24.4167Z" fill="#00A413" stroke="#00A413"/>
</svg>
