<svg width="167" height="92" viewBox="0 0 167 92" fill="none" xmlns="http://www.w3.org/2000/svg">
<path d="M142.888 14.7178C134.371 14.7178 117.812 15.6608 105.86 24.6837C100.44 28.776 94.9919 36.5481 93.9611 37.3676C93.0392 38.1006 86.0922 27.5622 79.5 23.1959C67.3736 15.1641 55.9762 12.5797 43.2328 14.7178C36.316 15.8783 30.0283 18.4854 26.714 21.559C26.0878 23.3437 18.7332 14.2272 21.7038 17.9897C23.5826 20.3692 23.9421 44.9769 29.2192 61.4168C34.0927 76.5988 52.7686 90.7451 73.9979 91.1611C83.0092 91.3377 91.2205 86.4016 96.5439 86.4016C101.867 86.4016 110.624 91.6713 119.952 91.1611C140.278 90.0491 155.625 82.2945 161.05 60.2268C164.11 47.781 163.913 40.4667 165.747 27.8054L167 17.0973L161.05 21.8565C161.05 21.8565 153.535 14.7178 142.888 14.7178Z" fill="#722F00"/>
<path d="M123.994 45.0026C112.29 44.7835 106.454 58.243 105 65C105.77 65 108.85 62.8083 113.727 63.6306C117.628 64.2876 121.723 64.9749 126.561 63.6306C135.992 61.0096 141.775 51.9841 144 45.227C142.46 45.4885 141.209 45.8662 139.394 46.0984C133.412 46.8637 129.372 45.0026 123.994 45.0026Z" fill="#DDE223"/>
<path d="M69.0063 45.0026C80.7105 44.7835 86.5459 58.243 88 65C87.2301 65 84.1499 62.8083 79.2733 63.6306C75.372 64.2876 71.277 64.9749 66.4395 63.6306C57.0079 61.0096 51.2245 51.9841 49 45.227C50.5398 45.4885 51.7905 45.8662 53.6056 46.0984C59.5877 46.8637 63.6283 45.0026 69.0063 45.0026Z" fill="#DDE223"/>
<path d="M29.9219 47.7616L26.5014 53C20.3766 49.0909 18.082 45.0102 17.8867 41.2907C12.4876 45.2349 5.41767 42.9341 2.55762 41.2907L5.04525 36.3605L0.0699359 35.436C-0.676364 27.5477 4.73433 23.7267 7.53294 22.8023C1.06502 20.5837 1.52109 13.25 2.55762 9.86047H7.53294V4.31395C14.4984 2.83488 19.744 6.3682 21.4961 8.31977C22.8274 1.91959 28.7103 0 32.7206 0L34.2754 5.23837L38.9397 2.46512C43.4175 8.62791 41.4274 15.191 39.8726 17.7021C46.3594 17.0916 50.4361 21.9014 52 25.5756L47.3356 29.2733L51.0671 32.9709C48.3307 36.6686 41.2201 38.2093 38.0069 38.5174C40.9921 42.7081 36.763 48.4806 34.2754 50.843L29.9219 47.7616Z" fill="#D9D9D9"/>
<path d="M109.5 22C112 26 130.735 15.1794 140.5 21.9999C145.4 25.4225 144.29 32.2331 150 33.9999C152.985 34.9234 155.038 33.0063 158 33.9999C161.036 35.0183 161.5 38.5 164.5 39" stroke="#00A800" stroke-width="5"/>
<path d="M39.5 31C36.3333 36.5 30.7 49.6 33.5 58C37 68.5 48.5 64 55.5 69.5C61.1 73.9 69 84.5 68 90.5" stroke="#00A800" stroke-width="4"/>
<path d="M29.9219 47.7616L26.5014 53C20.3766 49.0909 18.082 45.0102 17.8867 41.2907C12.4876 45.2349 5.41767 42.9341 2.55762 41.2907L5.04525 36.3605L0.0699359 35.436C-0.676364 27.5477 4.73433 23.7267 7.53294 22.8023C1.06502 20.5837 1.52109 13.25 2.55762 9.86047H7.53294V4.31395C14.4984 2.83488 19.744 6.3682 21.4961 8.31977C22.8274 1.91959 28.7103 0 32.7206 0L34.2754 5.23837L38.9397 2.46512C43.4175 8.62791 41.4274 15.191 39.8726 17.7021C46.3594 17.0916 50.4361 21.9014 52 25.5756L47.3356 29.2733L51.0671 32.9709C48.3307 36.6686 41.2201 38.2093 38.0069 38.5174C40.9921 42.7081 36.763 48.4806 34.2754 50.843L29.9219 47.7616Z" fill="#F357B4"/>
</svg>
