<svg width="129" height="130" viewBox="0 0 129 130" fill="none" xmlns="http://www.w3.org/2000/svg">
<path d="M19.6126 25.2019C27.6345 20.0971 32.6786 26.1135 34.1979 29.7598C35.7172 22.7711 37.1149 9.88741 48.7832 3.32404C63.3684 -4.88017 67.0147 4.23561 67.0147 7.88193C67.0147 11.5282 64.28 16.0861 62.4568 19.7325C60.6337 23.3788 61.5453 30.6714 64.28 32.4946C67.0147 34.3177 68.8379 32.4946 68.8379 26.1135C68.8379 21.0087 72.4842 18.517 74.3074 17.9093C78.5614 16.9977 86.5225 18.6386 84.3347 32.4946C82.1469 46.3506 81.9193 58.1195 90.7158 55.284C95.7982 53.6458 94.5444 45.0744 98.92 44.3451C104.389 43.4335 106.213 50.7261 106.213 52.5493C106.213 54.3725 107.124 61.6651 108.947 65.3114C110.771 68.9577 118.625 76.165 122.152 82.0421C124.886 86.6 129.002 94.4819 128.091 101.775C127.179 109.067 124.444 118.183 109.859 126.387C95.2737 134.591 76.0499 119.372 72.4842 118.183C69.7495 117.271 66.1032 118.183 63.3684 120.006C60.6337 121.829 47.8716 130.034 30.5516 129.122C13.2316 128.21 3.2042 113.625 0.469463 101.775C-2.26527 89.924 7.7621 76.2504 9.58525 72.604C11.0438 69.687 11.4084 61.6651 11.4084 58.0188C10.8007 49.2068 11.5907 30.3068 19.6126 25.2019Z" fill="#68CFFF"/>
<circle cx="36.021" cy="100.863" r="16.4084" fill="#D9D9D9"/>
<circle cx="36.021" cy="100.863" r="16.4084" fill="#D9D9D9"/>
<circle cx="36.021" cy="100.863" r="16.4084" fill="#A1E3FF"/>
<circle cx="86.6" cy="17.32" r="2.73474" fill="#A1E3FF"/>
<circle cx="99.3621" cy="39.1979" r="2.73474" fill="#66C3EB"/>
<circle cx="94.3621" cy="100.863" r="16.4084" fill="#A1E3FF"/>
</svg>
