<svg width="266" height="82" viewBox="0 0 266 82" fill="none" xmlns="http://www.w3.org/2000/svg">
<rect x="4" y="12" width="258" height="70" rx="10" fill="#8C5E0E"/>
<g filter="url(#filter0_f_5_727)">
<rect x="4" y="4" width="258" height="70" rx="10" fill="#43A19B"/>
<rect x="4" y="4" width="258" height="70" rx="10" fill="#B08233"/>
</g>
<rect x="4" y="12" width="258" height="26" rx="10" fill="#E4A956"/>
<g filter="url(#filter1_f_5_727)">
<rect x="4" y="4" width="258" height="28" rx="9" fill="#FFC16A"/>
</g>
<path d="M36 38.864C29.4202 38.864 28.6452 34.463 27.5056 35.0547C26.3661 35.6465 24 39 24 39L36 38.864Z" fill="#B08233" stroke="#B08233"/>
<path d="M223 38.6939C237.804 38.6939 239.548 28.7917 242.112 30.1232C244.676 31.4547 250 39 250 39L223 38.6939Z" fill="#B08233" stroke="#B08233"/>
<defs>
<filter id="filter0_f_5_727" x="0" y="0" width="266" height="78" filterUnits="userSpaceOnUse" color-interpolation-filters="sRGB">
<feFlood flood-opacity="0" result="BackgroundImageFix"/>
<feBlend mode="normal" in="SourceGraphic" in2="BackgroundImageFix" result="shape"/>
<feGaussianBlur stdDeviation="2" result="effect1_foregroundBlur_5_727"/>
</filter>
<filter id="filter1_f_5_727" x="0" y="0" width="266" height="36" filterUnits="userSpaceOnUse" color-interpolation-filters="sRGB">
<feFlood flood-opacity="0" result="BackgroundImageFix"/>
<feBlend mode="normal" in="SourceGraphic" in2="BackgroundImageFix" result="shape"/>
<feGaussianBlur stdDeviation="2" result="effect1_foregroundBlur_5_727"/>
</filter>
</defs>
</svg>
