<svg width="243" height="155" viewBox="0 0 243 155" fill="none" xmlns="http://www.w3.org/2000/svg">
<path d="M173 69C173.4 89.4 157.5 100.833 149.5 104L154 114.5L195 118C200.833 117.667 215.3 113.7 226.5 100.5C240.5 84 248 62 239 49.5C231.8 39.5 203.667 26.6667 190.5 21.5C181.667 24 162 29.4 154 31C146 32.6 142 25.3333 141 21.5C135.167 23.3333 124.3 29.1 127.5 37.5C130.7 45.9 137.833 51.3333 141 53L157 49.5C162.167 47.5 172.6 48.6 173 69Z" fill="#C8A752"/>
<path d="M242 58L173 72C173 78 168.833 87.3333 165.5 92H233C243.8 78 243.5 63.5 242 58Z" fill="#E9C465"/>
<path d="M41.5431 135.539C41.9431 132.339 44.0431 126.539 45.0431 124.039L46.0431 123.539L60.0431 126.039L70.5431 139.039V145.039C68.3764 145.872 62.5431 147.739 56.5431 148.539C50.5431 149.339 43.3764 146.205 40.5431 144.539C40.7098 142.872 41.1431 138.739 41.5431 135.539Z" fill="#EAC568"/>
<path d="M13.043 64.0387C8.64301 59.2387 4.54301 48.7054 3.04301 44.0387C2.54301 41.372 2.54301 35.8387 6.54301 35.0387C11.543 34.0387 10.9999 41.5 29.4999 40.5C47.9999 39.5 43.043 40.5387 49.543 42.0387C54.743 43.2387 68.3763 54.872 74.543 60.5387C79.043 64.2054 89.5999 67.2387 97.9999 64.0387C106.36 60.854 110.999 65.494 112.028 66.5241L112.043 66.5387C114.043 69.2054 118.5 75 118.5 77C118.5 79.5 115.543 82.0387 113.043 82.5387C111.043 82.9387 105.876 85.0387 103.543 86.0387C99.7097 87.7054 91.943 91.5387 91.543 93.5387C95.2097 97.0387 102.743 104.439 103.543 106.039L158.543 112.039C155.043 114.372 145.443 120.939 135.043 128.539C122.043 138.039 107.543 139.039 90.043 141.039C76.043 142.639 60.8763 135.705 55.043 132.039C48.043 127.205 34.043 115.239 34.043 106.039C34.043 94.5387 32.543 88.0387 32.043 86.0387C31.543 84.0387 18.543 70.0387 13.043 64.0387Z" fill="#F4D68A"/>
<path d="M61.1546 9.18677C65.6488 8.8889 68.2267 10.1342 71.5431 11.0387C75.9431 12.2387 80.7097 14.5387 82.5431 15.5387C90.5431 14.872 106.896 13.0387 108.043 14.5387C114.543 23.0387 131.543 49.0387 131.543 61.5387C131.543 74.0387 120.043 79.0387 119.043 82.0387C118.043 85.0387 119.393 94.1107 124.543 98.5387C129.249 102.584 136.543 102.039 140.043 102.039C143.543 102.039 150.043 101.039 152.043 102.039C154.043 103.039 157.243 105.239 158.043 110.039C159.043 116.039 164.043 124.539 169.543 126.039L172.043 142.539C170.876 143.039 167.843 144.239 165.043 145.039C161.543 146.039 147.543 145.039 147.043 143.039L149.043 134.539C146.043 134.539 141.043 135.039 139.043 133.539C137.043 132.039 132.376 124.539 129.543 120.539H125.043C126.043 125.705 129.043 132.539 128.043 137.039C127.043 141.539 122.043 150.039 121.043 150.539C120.043 151.039 109.043 155.539 99.5431 154.539C91.9431 153.739 88.7097 150.539 88.0431 149.039C88.0431 149.039 89.3773 144.398 90.5431 141.539C93.4896 134.313 98.4659 131.904 101.043 124.539C103.451 117.657 104.543 108.539 103.543 106.039C102.543 103.539 92.0431 94.5387 91.5431 93.5387C91.0431 92.5387 98.1431 88.5387 102.543 86.5387C108.043 84.0387 115.043 82.0387 116.043 81.0387C117.043 80.0387 118.043 79.5387 118.043 77.5387C118.043 75.5387 112.543 66.0387 111.043 66.0387C109.543 66.0387 107.043 64.5387 102.543 66.0387L102.543 66.0387C98.043 67.5387 96.543 68.0387 91.5431 68.0387C86.5431 68.0387 77.0431 63.0387 72.5431 59.0387C68.0431 55.0387 55.543 43.0387 48.043 41.5387C40.543 40.0387 27.8825 45.3237 16.543 40.5387C12.5934 38.8721 8.04305 35.0387 7.04305 35.0387C6.04305 35.0387 3.54305 36.5387 3.04305 38.5387C2.64305 40.1387 2.87639 43.2054 3.04305 44.5387C1.87639 42.5387 -0.335628 37.8836 0.0430553 36.0387C0.421739 34.1938 3.04305 29.5387 7.54305 26.0387C11.1431 23.2387 17.043 18.872 19.543 17.0387C28.7097 11.0387 47.643 -0.761295 50.043 0.0387054C52.4431 0.838705 59.043 6.37203 62.043 9.0387L61.1546 9.18677Z" fill="#EAC568"/>
<path d="M58.0431 36.0387C54.4431 35.6387 52.8764 38.2054 52.5431 39.5387C53.3764 39.7054 55.3431 39.8387 56.5431 39.0387C57.7431 38.2387 58.0431 36.7054 58.0431 36.0387Z" fill="#A37F23"/>
<path d="M44.0761 31.0686C46.9317 33.297 46.2599 36.2281 45.5671 37.415C44.8544 36.9522 43.3539 35.6738 43.054 34.2632C42.7541 32.8525 43.6105 31.5457 44.0761 31.0686Z" fill="#A37F23"/>
<path d="M89.5431 56.5387C77.9431 54.9387 68.0431 46.0387 68.0431 41.0387C68.0431 36.0387 74.4431 28.6387 82.0431 23.0387C89.6431 17.4387 99.5431 17.5387 102.043 19.5387C104.543 21.5387 108.243 26.3387 111.043 33.5387C113.843 40.7387 112.543 52.5387 110.543 54.5387C108.543 56.5387 101.143 58.1387 89.5431 56.5387Z" fill="#DCB34C"/>
<path d="M42.5431 25.5387C45.3431 23.1387 52.62 10.2358 46.0431 6.53868C43.4673 5.09074 38 5.5 38 5.5C38 5.5 18.5 17.5 15 20.5C11.5 23.5 15.2097 31.0387 16.5431 31.5387C27.0431 36.5387 39.0431 28.5387 42.5431 25.5387Z" fill="#DCB34C"/>
<path d="M48.0431 141.539C46.4431 141.139 44.0431 144.039 43.0431 145.539C48.0431 148.039 54.5431 148.539 56.0431 148.539C57.2431 148.539 66.2098 146.205 70.5431 145.039C69.7098 143.705 67.6431 141.139 66.0431 141.539C64.4431 141.939 62.7098 143.372 62.0431 144.039C61.0431 143.539 57.5431 141.539 56.0431 141.539C54.8431 141.539 52.8764 143.539 52.0431 144.539C51.3764 143.705 49.6431 141.939 48.0431 141.539Z" fill="#CAA74E"/>
<path d="M93.0431 144.539C91.8431 144.539 89.5431 146.205 88.5431 147.039L88.0431 149.039C91.5431 153.539 95.0431 153.539 100.543 154.539C104.943 155.339 114.043 152.872 118.043 151.539C116.876 150.039 114.143 147.039 112.543 147.039C110.943 147.039 108.543 148.372 107.543 149.039C105.043 146.539 102.043 145.039 100.543 145.039C99.3431 145.039 97.7098 147.039 97.0431 148.039C96.2098 146.872 94.2431 144.539 93.0431 144.539Z" fill="#CAA74E"/>
<path d="M150.543 139.539C149.743 139.139 148.543 139.372 148.043 139.539L147.043 143.039C147.543 144.539 152.043 145.039 157.543 145.539C161.943 145.939 167.043 144.705 169.043 144.039C168.876 143.372 168.443 141.839 168.043 141.039C167.543 140.039 166.043 139.539 165.543 139.539C165.143 139.539 163.043 140.872 162.043 141.539C161.043 140.539 158.643 138.539 157.043 138.539C155.443 138.539 153.376 140.539 152.543 141.539C152.21 141.039 151.343 139.939 150.543 139.539Z" fill="#CAA74E"/>
<path d="M73 38C75.4 22.4 94 19 100.5 21C107 23 112 45.5 107 50C102 54.5 70 57.5 73 38Z" fill="white"/>
<path d="M45.5 8.50001C44 7.00002 40.7185 6.60936 37.5 6.50001C28.6234 6.1984 18.5 17.5 18.5 19C18.5 20.5 16 24.5 20 28.5C24 32.5 34.8471 29.935 40.5 24C44.8866 19.3945 47 10 45.5 8.50001Z" fill="white"/>
<path d="M23 19.9534L33.248 9L39.0899 14.4656L28.8418 25.419L23 19.9534Z" fill="#9A7B2C"/>
<path d="M82.757 43.3737L90 25L101.553 29.5542L94.3099 47.9279L82.757 43.3737Z" fill="#9A7B2C"/>
<path d="M190.5 21.5L160 49C164.8 49 169 53 170.5 55L213 31.5L190.5 21.5Z" fill="#E9C465"/>
</svg>
