<svg width="129" height="118" viewBox="0 0 129 118" fill="none" xmlns="http://www.w3.org/2000/svg">
<path d="M0.469463 90.2281C-2.26527 78.3776 7.7621 64.7039 9.58525 61.0576C13.7235 50.8563 21.6 27.3536 20 14.9536C20 13.482 20.4 10.5388 22 10.5388C24 10.5388 32 15.0747 40.5 28.0388C45.1667 19.2055 56.2 1.23878 63 0.038784C71.5 -1.46122 88 41.0388 88.5 42.5388C89.8333 36.8721 93.4 24.9388 97 22.5388C100.6 20.1388 104.642 33.8482 106.213 41.0029C106.213 42.826 107.124 50.1187 108.947 53.765C110.771 57.4113 118.625 64.6185 122.152 70.4957C124.886 75.0536 129.002 82.9355 128.091 90.2281C127.179 97.5208 124.444 106.637 109.859 114.841C95.2737 123.045 76.0499 107.825 72.4842 106.637C69.7495 105.725 65.0483 104.771 61.5 105.539C48.5 108.353 47.8716 118.487 30.5516 117.576C13.2316 116.664 3.2042 102.079 0.469463 90.2281Z" fill="#FFC16A"/>
<circle cx="31.5" cy="11.5388" r="1.5" fill="#DDA961"/>
<circle cx="45.5" cy="13.5388" r="0.5" fill="#CEA163"/>
<circle cx="88.5" cy="29.5388" r="0.5" fill="#FFC16A"/>
<path d="M37.4694 71.1762C26.6939 72.5909 24 84.3407 24 90.0388L54 84.7337C52.9796 79.6251 48.2449 69.7615 37.4694 71.1762Z" fill="#8D6835"/>
<path d="M91.0306 71.2926C101.806 72.7073 104.5 84.4572 104.5 90.1553L74.5 84.8501C75.5204 79.7415 80.2551 69.8779 91.0306 71.2926Z" fill="#8D6835"/>
</svg>
